<svg width="444" height="151" viewBox="0 0 444 151" fill="none" xmlns="http://www.w3.org/2000/svg">
<path d="M163.2 138.8L126.8 102L163.6 65.2L152 54L104 102L152 150L163.2 138.8Z" fill="black"/>
<path d="M176.4 138.8L212.8 102L176 65.2L187.6 54L235.6 102L187.6 150L176.4 138.8Z" fill="black"/>
<path d="M51.6 150.2C20.4 150.2 0 128.8 0 94.8C0 61 20.4 40 52.2 40C79.2 40 96.6 55.8 99.8 81.6H83.4C81 64.8 70 54.4 52.2 54.4C30.6 54.4 16.4 69.8 16.4 95.2C16.4 120.6 31.6 136.8 55.4 136.8C75.8 136.8 89.8 127 97.2 111.2L97.8 111.4C92.8 135.4 77.4 150.2 51.6 150.2Z" fill="black"/>
<path d="M282.2 150.4C255.6 150.4 240 130.4 240 95.2C240 59.8 255.6 40.2 282.2 40.2C303.4 40.2 316.8 55.2 320.4 77.4H320.6V0H337.2V147.4H320.6V111.4H320.4C317 135 303.4 150.4 282.2 150.4ZM256.6 95.2C256.6 120.4 266.6 137.4 288.8 137.4C301.4 137.4 321.6 130.6 321.6 94C321.6 58.4 300.2 53.2 288.8 53.2C266.6 53.2 256.6 69.2 256.6 95.2Z" fill="black"/>
<path d="M393.4 150C363.6 150 342 129.4 342 94.6C342 60.4 363.4 40 393.4 40C427.4 40 443.6 62.4 443.2 91.8H358.4V95C358.4 118.4 371 136.6 398.4 136.6C416.4 136.6 432 128.6 440.8 111L441.4 111.2C435.8 135 419.4 150 393.4 150ZM358.8 88.2H426.8C426.2 67.2 414.8 54.4 393.2 54.4C374 54.4 361 67 358.8 88.2Z" fill="black"/>
</svg>
