<svg width="50" height="139" viewBox="0 0 50 139" fill="none" xmlns="http://www.w3.org/2000/svg">
<path d="M-64.919 116.348C-65.081 115.606 -65.2247 114.854 -65.3489 114.095C-66.1852 108.996 -65.961 103.303 -64.7187 98.0694C-63.3506 92.2949 -60.8933 87.5529 -57.615 84.3564C-54.4119 81.2317 -50.7891 79.7077 -46.695 79.7935C-47.1038 75.1761 -47.2485 66.7703 -44.0043 60.3884C-42.2174 56.8729 -39.6528 54.6104 -36.5886 53.841C-34.7122 53.3672 -32.7952 53.5333 -30.8905 54.3252C-30.8773 54.3287 -30.8631 54.3372 -30.8499 54.3407C-29.3027 55.0286 -27.82 55.7429 -26.3907 56.4772C-26.1113 53.7056 -25.5348 50.9506 -24.6776 48.3834C-22.9906 43.3317 -20.2971 39.3497 -17.0975 37.1746C-16.7336 36.9293 -16.3664 36.6988 -15.9928 36.498C-16.7013 29.58 -15.7416 23.3742 -13.1049 18.394C-10.2706 13.0311 -5.94891 9.82372 -0.61355 9.11998C0.354455 8.9912 1.34556 8.94931 2.36128 8.98229C2.53179 8.3813 2.73597 7.78301 2.97337 7.2044C4.16555 4.29719 6.05607 2.25995 8.44175 1.31691C9.57926 0.866463 10.81 0.729636 12.1015 0.90866C28.5088 3.19073 42.6 17.5634 48.8702 38.4073C49.3403 39.9732 48.7692 41.9391 47.5925 42.797C46.4159 43.6549 45.0801 43.0836 44.61 41.5176C38.8918 22.5208 26.0548 9.42474 11.1084 7.34015C10.3835 7.2382 9.73151 7.30004 9.16826 7.52207C8.16342 7.91757 7.46199 8.60469 6.97249 9.6757C8.8761 10.1784 10.7817 10.9364 12.6304 11.9449C26.7123 19.6113 38.354 35.0701 44.5722 54.35C46.0674 58.7753 46.3343 65.393 43.9169 69.4093C42.9792 70.9642 40.8659 73.382 37.2127 72.0974C37.1721 72.082 37.1279 72.0687 37.0862 72.0484C20.7941 64.7658 7.86196 46.747 2.49495 23.8498C2.17966 22.5004 1.51141 19.1935 1.52803 15.4266C-2.90161 15.3187 -7.06265 17.1226 -9.5465 21.8187C-11.6586 25.8134 -11.9289 30.6144 -11.4274 35.0886C-8.09119 34.8074 -4.41296 35.9605 -0.323197 38.5629C10.2784 45.3011 19.2073 56.854 24.8235 71.105C25.813 73.6116 27.3079 78.5276 26.2119 83.2574C25.658 85.6425 24.5099 87.6154 22.8908 88.965C20.6382 90.8395 17.9745 91.0581 15.7602 89.5489C3.26447 81.0259 -6.99343 66.6233 -13.1184 49.0006C-13.8753 46.8212 -14.4922 44.6774 -14.9753 42.5783C-15.1623 42.6872 -15.3446 42.7989 -15.5247 42.9205C-18.7636 45.124 -21.8913 51.2821 -22.0031 58.8728C-1.79636 70.7385 5.46328 86.5913 7.8814 98.462C7.89112 98.5065 7.90084 98.551 7.90689 98.5977C8.31411 101.031 7.71 103.735 6.32127 105.647C4.93361 107.565 3.00701 108.357 1.29452 107.727C-7.58141 104.443 -14.0309 94.3457 -18.6568 85.9178C-22.2187 79.4291 -25.6137 72.2467 -26.4234 63.6539C-28.6708 62.4093 -30.7946 61.3714 -32.6897 60.5292C-33.9389 60.0135 -35.1659 59.9028 -36.3306 60.1907C-38.0858 60.6329 -39.4143 61.7798 -40.3914 63.7033C-42.2276 67.3144 -42.8244 73.8385 -41.9144 80.3159C-41.9045 80.3993 -41.8909 80.4806 -41.8809 80.564C-38.5091 81.5442 -34.8559 83.4532 -30.8995 86.2782C-20.5791 93.6595 -8.06489 104.463 -2.86204 122.689C-1.99238 125.556 -1.65661 129.725 -3.30741 132.86C-3.97032 134.121 -5.51262 136.201 -8.387 135.985C-8.4159 135.985 -8.44589 135.98 -8.47113 135.978C-17.9645 134.732 -26.6514 128.585 -33.5862 118.196C-39.3047 109.629 -43.5711 98.4557 -45.7645 86.3649C-49.5026 85.8655 -52.675 86.9154 -55.336 89.5128C-59.285 93.3672 -62.455 102.304 -60.8799 111.923C-59.7189 119.001 -56.4858 125.441 -50.6927 132.192C-49.7777 133.259 -49.7444 135.285 -50.6187 136.714C-51.493 138.143 -52.9458 138.437 -53.8608 137.37C-59.7486 130.507 -63.3041 123.764 -64.927 116.33L-64.919 116.348ZM-6.91863 126.562C-6.97154 126.32 -7.03502 126.067 -7.11533 125.812C-7.12073 125.788 -7.12505 125.768 -7.13412 125.745C-11.8516 109.193 -23.6185 99.0861 -33.3451 92.1339C-35.9066 90.3028 -38.2958 88.901 -40.5259 87.9251C-38.348 97.6166 -34.7345 106.5 -30.0675 113.488C-23.8045 122.864 -16.0193 128.421 -7.54792 129.548C-7.03682 129.58 -6.85476 129.429 -6.85476 129.429C-6.73356 129.208 -6.5951 128.063 -6.92337 126.559L-6.91863 126.562ZM3.32793 100.305C-0.180427 84.2357 -11.0001 73.583 -21.0615 66.915C-19.739 72.461 -17.2446 77.3358 -14.8987 81.6058C-10.6447 89.3527 -4.77032 98.6147 2.95044 101.472C3.00049 101.493 3.15692 101.547 3.32277 101.322C3.45886 101.132 3.45623 100.949 3.44305 100.851C3.4031 100.668 3.36314 100.485 3.32427 100.307L3.32793 100.305ZM21.6665 77.7539C21.4538 76.7795 21.1446 75.761 20.7472 74.7548C15.5306 61.5199 7.23506 50.7857 -2.6126 44.5283C-5.43405 42.7371 -7.9481 41.7481 -10.1921 41.5606C-9.78959 43.0822 -9.35692 44.4581 -8.9502 45.6205C-3.20255 62.1585 6.42258 75.6697 18.1463 83.6666C19.0213 84.2665 20.0864 84.2038 20.9255 83.5034C21.4261 83.0893 21.7041 82.6209 21.8631 81.9485C22.1052 80.8989 22.025 79.3959 21.6665 77.7539ZM6.14595 16.1886C6.23454 17.7871 6.47462 19.4925 6.87283 21.1839C11.8405 42.3847 23.8042 59.072 38.8759 65.8388C39.3847 66.0108 40.2261 66.1731 40.5755 65.5962C41.3273 64.3446 41.4028 60.6772 40.3761 57.6404C34.5567 39.6 23.6936 25.1707 10.5503 18.017C9.14349 17.2529 7.65969 16.6284 6.14961 16.1865L6.14595 16.1886Z" fill="#408AFF"/>
</svg>
