<svg width="308" height="276" viewBox="0 0 308 276" fill="none" xmlns="http://www.w3.org/2000/svg">
<path d="M4.45842 228.324C3.9267 226.781 3.44397 225.218 3.01374 223.646C0.118181 213.074 0.0576474 201.405 2.84143 190.803C5.90534 179.104 12.0762 169.655 20.6797 163.478C29.0855 157.44 38.8311 154.739 50.0589 155.4C48.3916 145.867 46.999 128.584 55.1315 115.86C59.6107 108.851 66.3695 104.508 74.674 103.291C79.759 102.54 85.0308 103.108 90.3435 104.961C90.38 104.969 90.42 104.988 90.4565 104.997C94.7773 106.593 98.9245 108.236 102.927 109.914C103.365 104.254 104.618 98.6636 106.662 93.492C110.686 83.3157 117.594 75.4558 126.103 71.3673C127.071 70.9066 128.049 70.4766 129.049 70.1085C126.288 55.8148 128.182 43.1817 134.816 33.2646C141.947 22.5851 153.408 16.5091 167.942 15.6959C170.579 15.5461 173.29 15.5775 176.077 15.7656C176.473 14.5513 176.961 13.3466 177.543 12.1863C180.465 6.35609 185.404 2.3956 191.828 0.741295C194.892 -0.0491281 198.248 -0.184353 201.807 0.336404C247.032 6.96813 287.344 38.1598 306.994 81.7165C308.467 84.9887 307.136 88.9589 304.013 90.5816C300.891 92.2043 297.163 90.8725 295.69 87.6003C277.771 47.9029 241.047 19.4821 199.849 13.4291C197.85 13.1339 196.071 13.1836 194.554 13.5729C191.848 14.2662 190.008 15.5944 188.793 17.7363C194.069 18.9945 199.38 20.7772 204.564 23.0678C244.056 40.4834 277.785 73.6157 297.107 113.954C301.728 123.221 303.243 136.845 297.096 144.808C294.711 147.891 289.207 152.607 279.046 149.535C278.933 149.499 278.81 149.466 278.693 149.42C233.192 132.53 195.623 93.987 178.205 46.3196C177.181 43.5105 174.958 36.639 174.558 28.9036C162.408 28.1571 151.221 31.3692 144.972 40.7208C139.658 48.6756 139.487 58.5049 141.391 67.7545C150.498 67.5723 160.713 70.3765 172.227 76.2067C202.073 91.3034 227.906 116.091 244.983 146.029C247.991 151.294 252.669 161.569 250.227 171.154C248.992 175.988 246.08 179.904 241.804 182.484C235.854 186.068 228.582 186.201 222.336 182.839C187.089 163.852 157.276 133.053 138.406 96.1296C136.074 91.5635 134.13 87.0869 132.558 82.7181C132.058 82.9196 131.572 83.1275 131.093 83.3559C122.48 87.4981 114.64 99.7762 115.233 115.354C172.004 142.121 193.773 175.544 201.805 200.213C201.837 200.305 201.869 200.398 201.891 200.494C203.295 205.54 201.96 211.023 198.382 214.787C194.807 218.56 189.622 219.96 184.855 218.462C160.147 210.666 141.28 189.161 127.606 171.302C117.078 157.552 106.925 142.397 103.688 124.651C97.3831 121.828 91.4412 119.445 86.1491 117.49C82.6651 116.283 79.2903 115.91 76.1332 116.364C71.3766 117.064 67.8725 119.262 65.4233 123.097C60.8202 130.297 59.9582 143.627 63.2189 157.039C63.2561 157.212 63.303 157.381 63.3401 157.553C72.6948 159.966 82.9303 164.32 94.1054 170.591C123.257 186.976 158.825 210.649 175.24 248.703C177.962 254.694 179.377 263.298 175.225 269.542C173.558 272.054 169.579 276.143 161.678 275.358C161.599 275.355 161.516 275.341 161.446 275.334C135.288 271.65 110.758 257.994 90.5263 235.833C73.8431 217.559 60.8294 194.103 53.387 169.008C43.0859 167.539 34.5181 169.32 27.5349 174.34C17.172 181.789 9.54539 199.769 15.001 219.713C19.0208 234.389 28.6422 248.001 45.3148 262.553C47.9482 264.854 48.2795 269.02 46.0533 271.851C43.8271 274.683 39.8816 275.114 37.2482 272.814C20.3028 258.02 9.76212 243.748 4.43443 228.287L4.45842 228.324ZM164.584 256.177C164.411 255.673 164.207 255.146 163.956 254.614C163.939 254.563 163.925 254.521 163.897 254.474C149.01 219.916 115.572 197.762 88.0986 182.329C80.8634 178.265 74.151 175.102 67.925 172.833C75.0408 192.998 85.9943 211.673 99.6095 226.58C117.88 246.58 139.87 258.917 163.214 262.236C164.618 262.361 165.099 262.074 165.099 262.074C165.405 261.634 165.649 259.298 164.571 256.171L164.584 256.177ZM189.547 203.458C178.031 170.036 147.123 146.873 118.766 131.985C123.047 143.533 130.459 153.842 137.392 162.89C149.966 179.307 167.159 199.027 188.651 205.812C188.791 205.861 189.226 205.99 189.654 205.548C190.004 205.172 189.975 204.797 189.927 204.594C189.796 204.213 189.665 203.833 189.538 203.462L189.547 203.458ZM237.121 159.311C236.423 157.285 235.455 155.156 234.247 153.042C218.385 125.24 194.384 102.208 166.661 88.1885C158.718 84.1749 151.713 81.8455 145.543 81.1945C146.826 84.3676 148.174 87.245 149.426 89.6808C167.134 124.331 195.107 153.224 228.177 171.039C230.645 172.375 233.556 172.373 235.772 171.033C237.094 170.242 237.801 169.313 238.157 167.951C238.696 165.823 238.298 162.727 237.121 159.311ZM187.3 31.016C187.733 34.3098 188.593 37.8412 189.884 41.3625C206.007 85.4982 240.764 121.192 282.861 136.877C284.275 137.291 286.6 137.724 287.489 136.58C289.4 134.098 289.173 126.574 286 120.215C267.917 82.4702 236.444 51.5448 199.585 35.2935C195.64 33.5573 191.5 32.0988 187.31 31.012L187.3 31.016Z" fill="#408AFF"/>
</svg>
